<svg width="22" height="22" viewBox="0 0 800 502" fill="none" xmlns="http://www.w3.org/2000/svg">
<path d="M522 33.2H721.5V81.6H522V33.2ZM322.1 224.7C366.2 203.6 389.3 171.5 389.3 121.9C389.3 23.8 316.3 0 232 0H0V492.4H238.5C327.9 492.4 411.8 449.4 411.8 349.4C411.8 287.6 382.6 241.9 322.1 224.7V224.7ZM108.2 84H209.7C248.8 84 283.9 94.9 283.9 140.3C283.9 182.1 256.6 198.9 217.9 198.9H108.2V84ZM223.7 408.8H108.1V273.2H226C273.6 273.2 303.7 293.1 303.7 343.5C303.7 393.1 267.8 408.8 223.7 408.8V408.8ZM799.5 319.3C799.5 213.8 737.8 125.9 626.2 125.9C517.7 125.9 443.9 207.6 443.9 314.7C443.9 425.7 513.8 501.9 626.2 501.9C711.3 501.9 766.4 463.6 792.9 381.9H706.6C697.2 412.4 659 428.4 629.3 428.4C571.9 428.4 541.9 394.8 541.9 337.7H798.8C799.1 331.8 799.5 325.6 799.5 319.3V319.3ZM541.9 275.9C545 229 576.3 199.7 623.1 199.7C672.3 199.7 696.9 228.6 701.2 275.9H541.9Z" fill="#616161"/>
</svg>
