<svg width="22" height="22" viewBox="0 0 1000 1000" fill="none" xmlns="http://www.w3.org/2000/svg">
<path d="M196.064 0.25C88.347 0.25 0.187012 88.408 0.187012 196.127V803.968C0.187012 911.685 88.345 999.813 196.064 999.813H803.905C911.623 999.813 999.75 911.686 999.75 803.968V196.127C999.75 88.41 911.623 0.25 803.905 0.25H196.064ZM245.33 165.198C296.978 165.198 328.791 199.104 329.773 243.673C329.773 287.258 296.976 322.117 244.331 322.117H243.362C192.697 322.117 159.95 287.26 159.95 243.673C159.95 199.105 193.688 165.198 245.329 165.198H245.33ZM690.41 373.508C789.739 373.508 864.2 438.43 864.2 577.944V838.393H713.247V595.406C713.247 534.346 691.4 492.688 636.771 492.688C595.067 492.688 570.209 520.766 559.295 547.89C555.308 557.594 554.328 571.147 554.328 584.722V838.393H403.375C403.375 838.393 405.356 426.78 403.375 384.16H554.359V448.484C574.419 417.534 610.301 373.507 690.41 373.507V373.508ZM168.854 384.193H319.807V838.395H168.854V384.193V384.193Z" fill="#616161"/>
</svg>
