<svg id="Layer_1" data-name="Layer 1" xmlns="http://www.w3.org/2000/svg" viewBox="0 0 1366 768"><path d="M152.26,395c-16,7.8-29.06,14.74-29.06,15.17,0,.87,9.54,3.47,13.44,3.47,3.47,0,49.88,11.28,57.68,13.88,9.54,3.47,12.14,5.64,9.54,8.24-2.17,2.17-3,2.17-6.07.44-4.34-2.17-34.69-10-55.08-13.88-22.11-4.34-27.75-6.07-30.35-10-3-4.33,2.17-7.8,37.29-25.58,33-16.48,48.14-25.16,52-29.06a9.43,9.43,0,0,1,6.08-2.17c2.6,0,3.46.87,3.46,3,0,5.64-13.87,14.31-59.41,36.43Z"/><path d="M468.4,408c-.87-.87-54.21-3.47-92.81-4.77-29-.87-39.46-.87-40.76.43-5.64,4.77-42.94,85-45.1,97.58-.87,4.77-1.31,5.2-5.64,5.2s-4.34,0-3.47-6.07c1.3-9.11,29.49-74.16,41.2-95,1.3-2.16.43-2.6-10.84-2.6-12.58,0-46.41,2.17-56.38,3.47-6.07.87-10.84-2.17-9.11-5.64,1.3-2.6,25.59-5.2,56.81-6.07l25.59-.86,6.5-10.85c56.38-97.57,77.63-130.53,84.14-131.4s4.77,4.34-10,27.32S344.8,385,342.2,391.53L340.9,395h23.42c13,0,34.26.43,47.27,1.3S444.11,398,455,398.47l19.95.86,16.48-29.49c34.26-62,75.46-126.19,80.67-126.19,6.93,0,5.63,3.46-12.58,32.09C531.28,320,486.61,397.6,488.35,399.33c.43.44,3.9,1.3,7.8,1.74,12.58,1.3,19.08,5.64,15.62,10.41-1.31,1.3-2.61,1.3-5.64,0-2.17-.87-8.68-1.74-14.31-1.74l-10-.43-6.07,11.27c-16.48,29.49-60.28,124-61.15,132.27-.43,3-1.73,6.51-3,7.81-2.61,2.6-6.94,3.47-8.68,1.73s.44-8.24,10.41-31.22c12.58-28.62,38.6-85.43,49.44-107.12,4.34-8.67,7.81-16,7.81-16Z"/><path d="M651.83,413.64c8.24-5.63,10.41-5.2,10.41-.43,0,.87-1.73,3-4.77,6.07-8.67,8.68-25.15,21.25-35.56,27.32-19.08,10.85-29.92,12.15-38.6,5.21-4.77-3.91-5.2-5.21-5.2-11.71v-7.37l-10.41,7.8c-20,15.18-34.26,20.38-42.06,15.61-10.84-6.5,3.9-33,25.15-45.1,6.07-3.47,11.71-5.2,16.48-5.2,6.07,0,10.84,2.6,13.44,7.8l2.17,4.34,4.34-3.47c4.77-3.9,6.5-4.34,9.1-1.73,1.74,1.73,1.31,3.47-2.6,10.4-5.63,10.41-7.37,18.22-4.77,22.12,1.74,2.17,3,2.6,8.24,2.17,10-.87,22.12-7.37,42.07-23.42,5.64-4.33,10-7.8,13.44-10Zm-87.16,19.09c10-7.38,10.41-7.81,9.1-12.15-.86-2.6-2.16-5.2-3-5.63a3.27,3.27,0,0,0-2.17-.87c-9.54-.44-33.39,19.95-36.43,32.52-1.3,5.64,1.3,5.21,12.58-1.3,4.77-3,13.44-8.67,19.08-13Z"/><path d="M743.33,412.34c9.54-3.47,13.88-3.47,13.88.44,0,1.3-2.17,3-5.64,4.77-5.63,2.6-14.74,4.77-22.55,5.2-12.57.87-19.08-2.6-24.28-7.8-2.17-2.17-4.34-3.91-5.21-3.91-2.17,0-18.64,16-33.39,32.09-7.37,8.24-14.31,14.75-15.61,14.75a6.43,6.43,0,0,1-3.9-1.74c-2.61-2.6,2.16-14.31,13.44-32.52,9.54-15.61,12.57-18.22,16.48-14.75,2.17,1.74,2.17,2.17-.87,7.38-3.47,5.2-3,5.2,10-5.21,16-12.57,18.21-13,23.41-4.33,3.47,5.2,5.64,7.8,16,7.8a53.09,53.09,0,0,0,17.78-3Z"/><path d="M845.24,418.42c13.88-9.11,19.52-10.85,20.38-6.51,0,.87-3.47,3.47-8.67,7.37a355,355,0,0,1-41.2,24.29c-18.21,9.1-25.15,11.27-34.26,11.27-6.07,0-8.24-.86-12.14-3.9-3.47-2.6-4.77-4.77-4.77-8.24,0-5.64,4.77-17.35,10.41-25.59,6.07-9.1,9.54-13,12.57-13,1.3,0,2.61.87,3.91,2.17,1.73,1.74.86,3.9-5.64,14.31-12.14,19.52-13,26.89-2.6,26.89,9.54,0,34.26-10.84,62.45-29.05Zm-47.7-30.8c-1.3-2.6,6.94-13.44,10-13,5.21.87,5.64,4.34,1.3,9.54S799.27,391.09,797.54,387.62Z"/><path d="M943.68,412.78c12.14-4.77,15.61-4.77,15.61-.44,0,2.17-2.6,3.91-11.71,7.38-6.5,2.6-21.25,7.8-35.12,13l-24.72,10-.87,6.94a27,27,0,0,1-16.48,21.25c-7.81,3-16.48,3.47-20.82.87-3.9-2.17-3.9-9.55,0-13.88,3-3.47,14.75-11.71,21.69-15.61l3.47-1.74-2.61-11.27c-2.6-10-2.6-11.71-.43-16.48,2.6-5.64,6.94-9.11,10.84-9.11a5.51,5.51,0,0,1,2.6.43c4.34,1.74,4.34,4.34.44,6.51-4.77,2.6-6.07,7.81-3.91,16s3,9.55,6.08,7.38c1.3-.87,12.14-5.21,24.28-10s25.59-9.1,32.09-11.71Zm-77.63,49c6.51-4.33,11.71-13,7.81-13-1.74,0-16.91,11.28-18.65,13.88-1.3,2.17-.87,2.6,2.6,2.6a19,19,0,0,0,8.68-3Z"/><path d="M1127.12,268.8c2.6,1.73.87,5.2-13.44,25.58-26,36.87-61.15,92.81-114.06,182.58-17.78,29.92-20,33-23.85,31.22s-2.6-4.33,44.67-83.26c26.45-44.67,53.34-88,68.08-109.72,17.35-25.59,32.53-46,34.7-46.4.87-.44,2.6,0,3.9.87Z"/><path d="M1278.47,383.29c5.63,5.63-.87,9.54-64.62,38.16-46,20.38-46.4,20.38-49.44,19.52a3.66,3.66,0,0,1-1.73-3c0-1.73,6.93-5.64,24.71-13.44,34.26-15.62,65.92-30.36,73.29-34.26l6.51-3.47-3.9-1.74c-2.17-.87-14.75-4.77-27.76-8.67-36.43-10.84-45.53-14.31-46-16.91-1.3-4.77,2.17-4.77,20,.86,9.54,3,21.25,6.51,26,7.81,17.35,4.34,39.9,12.14,42.5,14.74Z"/></svg>