<svg id="Layer_1" data-name="Layer 1" xmlns="http://www.w3.org/2000/svg" width="220" height="220" viewBox="0 0 220 220"><defs><style>.cls-1{fill:#080a09;}</style></defs><path class="cls-1" d="M181,153.38c0,8.32-.1,16.65.06,25a5.33,5.33,0,0,1-3.23,5.5c-10.61,5.53-21.2,11.11-31.67,16.91-3.43,1.9-3.78.72-3.77-2.44.08-16.31-.06-32.62.1-48.93,0-3.36-.93-5.4-3.82-7.27C106.9,121.64,75.3,101,43.59,80.5c-3.27-2.11-4.69-4.3-4.62-8.34.26-16.3.2-32.62,0-48.93,0-3.52.61-5,4.58-4.93,10,.28,20,.25,30,0,3.44-.08,4.23,1.16,4.19,4.31-.15,10.32.06,20.64-.12,31,0,3,1,4.78,3.55,6.41,32,20.39,63.81,41,95.81,61.3,3.14,2,4.17,4.08,4.07,7.62C180.79,137.06,181,145.23,181,153.38Z"/><path class="cls-1" d="M39.08,102.69c13,8.33,24.94,16,36.93,23.69,1.74,1.11,1.64,2.73,1.64,4.39,0,22.6,0,45.2,0,67.8,0,2.91-.33,4.07-3.54,2.3-10.61-5.84-21.35-11.45-32-17.15-1.63-.87-3.09-1.7-3.08-4C39.1,154.44,39.08,129.2,39.08,102.69Z"/><path class="cls-1" d="M181,58.59c0,12-.07,23.94,0,35.91,0,3.26-.73,3.86-3.55,2q-16.29-10.59-32.71-21a4.72,4.72,0,0,1-2.39-4.5c.06-16.3.11-32.6,0-48.89,0-3.26,1.3-3.84,4.16-3.8,10.14.13,20.29.17,30.42,0,3.41-.07,4.17,1.21,4.13,4.35C180.87,34.64,181,46.62,181,58.59Z"/></svg>